<?xml version="1.0" encoding="utf-8"?>
<!-- Generator: Adobe Illustrator 23.0.2, SVG Export Plug-In . SVG Version: 6.00 Build 0)  -->
<svg version="1.1" id="Layer_1" xmlns="http://www.w3.org/2000/svg" xmlns:xlink="http://www.w3.org/1999/xlink" x="0px" y="0px"
	 viewBox="0 0 438.7 98.2" style="enable-background:new 0 0 438.7 98.2;" xml:space="preserve">
<style type="text/css">
	.st0{fill:#CB0000;}
	.st1{fill:#FFFFFF;}
</style>
<g id="Group_3" transform="translate(-185.836 -162.905)">
	<g id="Group_1" transform="translate(186.339 273.32)">
		<g id="newer-logo" transform="translate(-0.503 -110.415)">
			<g id="new-logo" transform="translate(0)">
				<path id="Shape" class="st0" d="M214,0l57.8,98.2h166.9V0H214z M303.3,83h-13.2l-20-34.6l10.3,0.1c6.3-0.1,11.5-5.2,11.5-11.5
					c0-2.9-1.2-5.8-3.5-7.7c-2.1-2.1-5.1-3.2-8-3h-23.6L250,13.8h30.3c12.7,0.1,23,10.4,23,23.1c0.1,4.7-1.3,9.3-4.1,13.1
					c-2.5,3.7-6,6.6-10.1,8.3L303.3,83z M359.9,83h-47.6l12.5-11.1h35.1V83z M359.9,53.9h-47v-11h47V53.9z M359.9,26.3h-35.1
					l-11.5-12.4h46.6V26.3z M419.9,61.9c-1.8,4.1-4.3,7.8-7.4,11.1c-3.2,3.1-6.9,5.6-11.1,7.4s-8.8,2.7-13.4,2.7h-23L376.5,72H388
					c3.1,0,6.1-0.7,9-1.9c2.8-1.2,5.3-2.9,7.3-5.1c2.1-2.1,3.7-4.7,4.9-7.4c2.4-5.7,2.4-12.1,0-17.8c-1.2-2.7-2.9-5.2-5-7.3
					c-2.1-2-4.6-3.6-7.3-4.7c-2.9-1-5.9-1.5-8.9-1.4h-11.6L365,13.8h23c4.6,0,9.2,1,13.4,2.8c4.1,1.8,7.8,4.3,11,7.5
					s5.7,6.9,7.5,11.1C423.4,43.7,423.5,53.3,419.9,61.9z"/>
				<path id="Shape-2" class="st1" d="M10.2,72.9c-3.1-3.2-5.7-6.9-7.4-11C0.9,57.7,0,53.1,0,48.6c0-4.6,0.9-9.2,2.8-13.5
					c1.8-4.1,4.3-7.8,7.4-10.9c9.9-9.9,24.9-12.9,37.8-7.5c4.1,1.8,7.9,4.3,11.1,7.5l-8.2,8c-4.3-4.3-10.2-6.7-16.2-6.7
					c-3.1,0-6.1,0.6-9,1.7c-2.8,1.1-5.3,2.8-7.3,5c-2.1,2.1-3.8,4.6-4.9,7.3c-2.4,5.7-2.4,12.2,0,18c2.5,5.4,6.8,9.8,12.3,12.3
					c2.9,1.1,15.1,2.3,17.4,0l7.8,9c-6.7,5.4-21.1,5.2-29.6,1.5C17.1,78.6,13.4,76.1,10.2,72.9z"/>
				<path id="Shape-3" class="st1" d="M119.4,24.2c13.5,13.5,13.6,35.3,0.1,48.8s-35.3,13.6-48.8,0.1s-13.6-35.3-0.1-48.8l0.1-0.1
					c13.3-13.5,34.9-13.6,48.4-0.4C119.2,24,119.3,24.1,119.4,24.2z M78.7,32.3c-9,9-9,23.6,0,32.6s23.6,9,32.6,0s9-23.6,0-32.6
					C107,28,101.1,25.6,95,25.6C88.9,25.5,83,27.9,78.7,32.3L78.7,32.3z"/>
				<path id="Shape-4" class="st1" d="M180.6,48.6c0,4.6-0.9,9.1-2.7,13.3c-1.8,4.1-4.3,7.8-7.4,11.1c-3.2,3.2-6.9,5.7-11.1,7.4
					c-4.2,1.8-8.8,2.8-13.4,2.8h-23l11.5-11.6H146c3.1,0,6.1-0.6,9-1.7c2.8-1.2,5.2-2.9,7.3-5s3.7-4.6,4.9-7.3
					c2.4-5.7,2.4-12.1,0-17.8c-1.2-2.7-2.9-5.2-5-7.3s-4.6-3.8-7.3-5c-2.8-1.1-5.9-1.7-8.9-1.7h-11.6L123,14h23
					c4.6,0,9.2,0.9,13.4,2.8c4.1,1.8,7.9,4.3,11.1,7.4c3.2,3.2,5.7,6.9,7.5,11.1C179.7,39.5,180.6,44,180.6,48.6L180.6,48.6z"/>
				<path id="Shape-5" class="st1" d="M236.1,14v11.6h-34.6L190.1,14H236.1L236.1,14z M201.6,42.9h34.6v11.5h-46V42.9H201.6
					L201.6,42.9z M201.6,71.5h34.6v11.6h-46v-1L201.6,71.5z"/>
			</g>
		</g>
	</g>
</g>
</svg>
