<?xml version="1.0" encoding="utf-8"?>
<!-- Generator: Adobe Illustrator 22.1.0, SVG Export Plug-In . SVG Version: 6.00 Build 0)  -->
<svg version="1.1" id="Layer_1" xmlns="http://www.w3.org/2000/svg" xmlns:xlink="http://www.w3.org/1999/xlink" x="0px" y="0px"
	 viewBox="0 0 438.7 171.6" style="enable-background:new 0 0 438.7 171.6;" xml:space="preserve">
<style type="text/css">
	.st0{fill:#CB0000;}
	.st1{fill:#FFFFFF;}
	.st2{fill:none;}
</style>
<g id="Group_3" transform="translate(-185.836 -162.905)">
	<g id="Group_1" transform="translate(186.339 273.32)">
		<g id="newer-logo" transform="translate(-0.503 -110.415)">
			<g id="new-logo" transform="translate(0)">
				<path id="Shape" class="st0" d="M214,0l57.8,98.2h166.9V0H214z M303.3,83h-13.2l-20-34.6l10.3,0.1c6.3-0.1,11.5-5.2,11.5-11.5
					c0-2.9-1.2-5.8-3.5-7.7c-2.1-2.1-5.1-3.2-8-3h-23.6L250,13.8h30.3c12.7,0.1,23,10.4,23,23.1c0.1,4.7-1.3,9.3-4.1,13.1
					c-2.5,3.7-6,6.6-10.1,8.3L303.3,83z M359.9,83h-47.6l12.5-11.1h35.1L359.9,83z M359.9,53.9h-47V42.9h47L359.9,53.9z M359.9,26.3
					h-35.1l-11.5-12.4h46.6L359.9,26.3z M419.9,61.9c-1.8,4.1-4.3,7.8-7.4,11.1c-3.2,3.1-6.9,5.6-11.1,7.4
					c-4.2,1.8-8.8,2.7-13.4,2.7h-23l11.5-11.1H388c3.1,0,6.1-0.7,9-1.9c2.8-1.2,5.3-2.9,7.3-5.1c2.1-2.1,3.7-4.7,4.9-7.4
					c2.4-5.7,2.4-12.1,0-17.8c-1.2-2.7-2.9-5.2-5-7.3c-2.1-2-4.6-3.6-7.3-4.7c-2.9-1-5.9-1.5-8.9-1.4h-11.6L365,13.8h23
					c4.6,0,9.2,1,13.4,2.8c4.1,1.8,7.8,4.3,11,7.5c3.2,3.2,5.7,6.9,7.5,11.1C423.4,43.7,423.5,53.3,419.9,61.9z"/>
				<path id="Shape-2" class="st1" d="M10.2,72.9C7.1,69.7,4.5,66,2.8,61.9C0.9,57.7,0,53.1,0,48.6c0-4.6,0.9-9.2,2.8-13.5
					c1.8-4.1,4.3-7.8,7.4-10.9c9.9-9.9,24.9-12.9,37.8-7.5c4.1,1.8,7.9,4.3,11.1,7.5l-8.2,8c-4.3-4.3-10.2-6.7-16.2-6.7
					c-3.1,0-6.1,0.6-9,1.7c-2.8,1.1-5.3,2.8-7.3,5c-2.1,2.1-3.8,4.6-4.9,7.3c-2.4,5.7-2.4,12.2,0,18c2.5,5.4,6.8,9.8,12.3,12.3
					c2.9,1.1,15.1,2.3,17.4,0l7.8,9c-6.7,5.4-21.1,5.2-29.6,1.5C17.1,78.6,13.4,76.1,10.2,72.9z"/>
				<path id="Shape-3" class="st1" d="M119.4,24.2c13.5,13.5,13.6,35.3,0.1,48.8s-35.3,13.6-48.8,0.1s-13.6-35.3-0.1-48.8
					c0,0,0.1-0.1,0.1-0.1c13.3-13.5,34.9-13.6,48.4-0.4C119.2,24,119.3,24.1,119.4,24.2z M78.7,32.3c-9,9-9,23.6,0,32.6
					s23.6,9,32.6,0s9-23.6,0-32.6C107,28,101.1,25.6,95,25.6C88.9,25.5,83,27.9,78.7,32.3L78.7,32.3z"/>
				<path id="Shape-4" class="st1" d="M180.6,48.6c0,4.6-0.9,9.1-2.7,13.3c-1.8,4.1-4.3,7.8-7.4,11.1c-3.2,3.2-6.9,5.7-11.1,7.4
					c-4.2,1.8-8.8,2.8-13.4,2.8h-23l11.5-11.6H146c3.1,0,6.1-0.6,9-1.7c2.8-1.2,5.2-2.9,7.3-5c2.1-2.1,3.7-4.6,4.9-7.3
					c2.4-5.7,2.4-12.1,0-17.8c-1.2-2.7-2.9-5.2-5-7.3c-2.1-2.1-4.6-3.8-7.3-5c-2.8-1.1-5.9-1.7-8.9-1.7h-11.6L123,14h23
					c4.6,0,9.2,0.9,13.4,2.8c4.1,1.8,7.9,4.3,11.1,7.4c3.2,3.2,5.7,6.9,7.5,11.1C179.7,39.5,180.6,44,180.6,48.6L180.6,48.6z"/>
				<path id="Shape-5" class="st1" d="M236.1,14v11.6h-34.6L190.1,14H236.1L236.1,14z M201.6,42.9h34.6v11.5h-46V42.9H201.6
					L201.6,42.9z M201.6,71.5h34.6v11.6h-46v-1L201.6,71.5z"/>
			</g>
		</g>
	</g>
	<g id="Group_2">
		<path id="Path_37" class="st1" d="M240.4,298.6c-0.7-1.7-1.8-3.3-3.1-4.6c-1.3-1.3-2.9-2.4-4.6-3.1c-1.8-0.8-3.7-1.2-5.6-1.2h-9.6
			l4.8,4.8h4.8c1.3,0,2.5,0.2,3.7,0.7c1.1,0.5,2.2,1.2,3.1,2.1c0.9,0.9,1.6,1.9,2.1,3.1c0.5,1.2,0.8,2.4,0.8,3.7
			c0,1.3-0.3,2.5-0.8,3.7c-0.5,1.1-1.2,2.2-2.1,3.1c-0.9,0.9-1.9,1.6-3.1,2.1c-1.2,0.5-2.5,0.7-3.7,0.7h-4.8l-4.8,4.8h9.6
			c1.9,0,3.8-0.4,5.6-1.2c1.7-0.7,3.3-1.8,4.6-3.1c1.3-1.3,2.3-2.9,3.1-4.6c0.8-1.7,1.1-3.6,1.1-5.5
			C241.6,302.2,241.2,300.4,240.4,298.6z M273.8,294.5l-4.8-4.8v28.8l4.8-4.8L273.8,294.5z M311.2,306.6c1,0,1.9,0.4,2.6,1.1
			c0.7,0.7,1.1,1.6,1.1,2.5c0,0.5-0.1,1-0.3,1.4c-0.2,0.4-0.4,0.8-0.8,1.2c-0.3,0.3-0.7,0.6-1.2,0.8c-0.4,0.2-0.9,0.3-1.4,0.3v4.8
			c2.2,0,4.4-0.8,5.9-2.4c1.6-1.6,2.5-3.7,2.5-5.9c0-2.2-0.9-4.4-2.5-5.9c-1.6-1.6-3.7-2.5-5.9-2.4h-7.2c-1,0-1.9-0.4-2.6-1.1
			c-0.7-0.7-1-1.6-1-2.6c0-0.5,0.1-0.9,0.3-1.4c0.2-0.4,0.4-0.8,0.8-1.2c0.3-0.3,0.7-0.6,1.2-0.8c0.4-0.2,0.9-0.3,1.4-0.3v-4.8
			c-2.2,0-4.4,0.9-5.9,2.5c-1.6,1.6-2.5,3.7-2.4,5.9c0,2.2,0.9,4.4,2.4,6c1.6,1.6,3.7,2.5,5.9,2.4L311.2,306.6z M350.9,317.4
			c1.8,0.8,3.7,1.2,5.6,1.2c1.9,0,3.8-0.4,5.6-1.1l-5.6-3.7c-1.3,0-2.6-0.2-3.7-0.7c-1.1-0.5-2.2-1.2-3-2.1c-0.9-0.9-1.6-1.9-2.1-3
			c-0.5-1.2-0.8-2.5-0.8-3.7c0-1.3,0.3-2.6,0.8-3.7c0.5-1.1,1.2-2.2,2.1-3c0.9-0.9,1.9-1.6,3.1-2.1c1.2-0.5,2.5-0.7,3.7-0.7
			c2.5,0,5,1,6.8,2.8l3.4-3.3c-1.3-1.3-2.9-2.4-4.6-3.1c-1.8-0.8-3.7-1.1-5.6-1.1c-1.9,0-3.8,0.4-5.6,1.2c-1.7,0.7-3.3,1.8-4.6,3.1
			c-1.3,1.3-2.4,2.8-3.1,4.5c-0.8,1.8-1.2,3.7-1.1,5.6c0,1.9,0.4,3.8,1.2,5.5c0.7,1.7,1.8,3.3,3.1,4.6
			C347.7,315.6,349.2,316.7,350.9,317.4z M404,289.8c-3.8-0.1-7.5,1.5-10.2,4.2c-2.8,2.7-4.3,6.3-4.2,10.2
			c-0.1,3.8,1.5,7.5,4.2,10.2c2.6,2.8,6.3,4.3,10.2,4.2c3.8,0.1,7.5-1.5,10.2-4.2c2.8-2.6,4.3-6.3,4.3-10.2c0-3.8-1.5-7.5-4.3-10.2
			C411.5,291.2,407.8,289.7,404,289.8z M404,294.6c2.5,0,5,1,6.8,2.8c1.8,1.8,2.8,4.2,2.8,6.8c0,2.6-1,5-2.8,6.8
			c-1.8,1.8-4.2,2.8-6.8,2.8c-2.6,0-5-1-6.8-2.8c-1.8-1.8-2.8-4.2-2.8-6.8c0-2.5,1-5,2.8-6.8C399,295.6,401.5,294.5,404,294.6z
			 M487,318.2v0.4h19.2v-4.8h-14.4L487,318.2z M487,289.8l4.8,4.8h14.4v-4.8H487z M487,301.8v4.8h19.2v-4.8H487z M547.8,304.8
			c1.1-1.6,1.7-3.5,1.7-5.4c0-2.5-1-5-2.8-6.8c-1.8-1.8-4.2-2.8-6.8-2.8h-12.6l2.5,4.3l0.5,0.5h9.6c1.3,0,2.5,0.5,3.3,1.4
			c0.9,0.9,1.5,2.1,1.4,3.3c0,1.3-0.5,2.5-1.4,3.4c-0.9,0.9-2.1,1.4-3.3,1.4l-4.3,0l8.3,14.4h5.5l-5.9-10.3
			C545.4,307.5,546.8,306.3,547.8,304.8z M585,304.2l10.8-14.4h-5l-8.2,10.5l-8.2-10.5h-6.2l11.9,14.4l0.3,14.4l4.5-3.5L585,304.2
			L585,304.2z M585,304.2L585,304.2L585,304.2z"/>
		<path id="Union_1" class="st1" d="M309.7,318.5l1.6-4.8c0.5,0,1-0.1,1.4-0.3c0.4-0.2,0.8-0.4,1.2-0.8c0.3-0.3,0.6-0.7,0.8-1.1
			c0.2-0.4,0.3-0.9,0.3-1.4c0-0.9-0.4-1.9-1.1-2.5c-0.7-0.7-1.6-1.1-2.5-1.1h-7.1c-2.2,0-4.4-0.8-5.9-2.4c-1.6-1.6-2.5-3.7-2.4-6
			c0-2.2,0.9-4.3,2.4-5.9c1.4-1.5,3.3-2.4,5.3-2.5v0h8.8v4.8h-8.6c-0.3,0-0.7,0.1-1,0.2c-0.4,0.2-0.9,0.4-1.2,0.8
			c-0.7,0.7-1,1.6-1,2.5c0,1,0.3,1.9,1,2.5c0.7,0.7,1.6,1.1,2.6,1.1h7.1c2.2,0,4.4,0.8,5.9,2.4c3.3,3.2,3.3,8.5,0.1,11.8
			c0,0,0,0-0.1,0.1c-0.6,0.6-1.3,1.1-2.1,1.5c-1.4,0.6-2.8,0.9-4.3,1C310.4,318.6,310,318.5,309.7,318.5z"/>
		<path id="Path_39" class="st1" d="M456.4,298.9l-4.3,8.3l-4.3-8.3h-5.5l9.8,18.9l14.7-28.3h-5.4l-2.5,4.7L456.4,298.9z
			 M439.8,294.2h5.4l-2.4-4.7h-5.5L439.8,294.2z"/>
		<g id="Path_38" transform="translate(186.339 273.32)">
			<path class="st2" d="M0,0h437.4v61.2H0V0z"/>
			<path class="st1" d="M1,1v59.2h435.4V1H1 M0,0h437.4v61.2H0V0z"/>
		</g>
	</g>
</g>
</svg>
