<?xml version="1.0" encoding="utf-8"?>
<!-- Generator: Adobe Illustrator 15.1.0, SVG Export Plug-In . SVG Version: 6.00 Build 0)  -->
<!DOCTYPE svg PUBLIC "-//W3C//DTD SVG 1.1//EN" "http://www.w3.org/Graphics/SVG/1.1/DTD/svg11.dtd">
<svg version="1.1" id="Layer_1" xmlns="http://www.w3.org/2000/svg" xmlns:xlink="http://www.w3.org/1999/xlink" x="0px" y="0px"
	 width="300px" height="100px" viewBox="0 0 300 100" enable-background="new 0 0 300 100" xml:space="preserve">
<rect x="-32.5" y="-9.735" fill="none" width="363" height="126.735"/>
<g>
	<path d="M123.509,36.033c-9.92,0-17.96,8.042-17.96,17.961s8.04,17.959,17.96,17.959c9.919,0,17.959-8.04,17.959-17.959
		S133.429,36.033,123.509,36.033z M123.509,64.596c-6.118,0-10.083-4.746-10.083-10.602c0-5.855,4.011-10.603,10.083-10.603
		c6.07,0,10.083,4.748,10.083,10.603C133.592,59.85,129.626,64.596,123.509,64.596z M76.684,71.146h7.45V57.343h15.063v-7.086
		H84.134v-6.396h18.112v-7.049H76.684V71.146z M277.871,64.116v-6.773h15.493v-7.086h-15.493v-6.396h18.112v-7.049h-25.562v34.335
		h25.742v-7.03H277.871z M217.091,71.146h7.45V36.812h-7.45V71.146z M247.527,56.164l-9.204-19.353h-8.275l17.434,34.794
		l17.432-34.794h-8.151L247.527,56.164z M180.356,43.861h11.056v27.286h7.421V43.861h11.056v-7.049h-29.532V43.861z M175.55,47.077
		c0-5.669-4.596-10.266-10.267-10.266h-17.645v34.335h7.451V57.343h2.81l9.655,13.804h9.152L166.571,57.26
		C171.633,56.627,175.55,52.31,175.55,47.077z M155.089,50.257v-6.396h9.711c1.773,0,3.21,1.443,3.21,3.216
		c0,1.773-1.437,3.18-3.21,3.18H155.089z"/>
	<path fill="#64BE49" d="M37.156,52.961l-17.123,9.886v9.037l17.123-9.888V52.961z M30.867,24.603
		c-16.033,0-29.03,12.997-29.03,29.028c0,9.104,4.191,17.229,10.749,22.553l7.448-4.3c-6.219-3.7-10.387-10.488-10.387-18.253
		c0-11.718,9.501-21.219,21.221-21.219c3.957,0,7.658,1.085,10.829,2.971L20.033,47.89v9.036l21.666-12.51v-9.031
		c6.219,3.7,10.388,10.486,10.388,18.246c0,11.722-9.5,21.223-21.221,21.223c-3.958,0-7.662-1.084-10.833-2.97v8.688
		c3.348,1.348,7.004,2.09,10.833,2.09c16.034,0,29.03-12.996,29.03-29.031C59.897,37.599,46.9,24.603,30.867,24.603z"/>
</g>
</svg>
