<svg xmlns="http://www.w3.org/2000/svg" viewBox="0 0 511.82 129.69"><defs><style>.cls-1,.cls-3{fill:#fff;}.cls-1,.cls-2,.cls-3{fill-rule:evenodd;}.cls-2{fill:none;}.cls-2,.cls-3{stroke:#fff;stroke-miterlimit:10;}</style></defs><title>Asset 1</title><g id="Layer_2" data-name="Layer 2"><g id="Layer_1-2" data-name="Layer 1"><polyline class="cls-1" points="0.56 129.65 509.52 129.65 509.54 129.63 509.6 129.63 509.69 129.63 509.82 129.63 509.96 129.63 510.09 129.63 510.25 129.63 510.45 129.63 510.61 129.63 510.77 129.63 510.91 129.63 511.05 129.65 511.14 129.65 511.23 129.65 511.28 129.65 511.32 129.69 511.32 113.5 0.56 113.5"/><polygon class="cls-2" points="118.07 24.34 118.83 24.84 119.52 25.39 120.14 25.99 120.72 26.55 121.17 27.23 121.59 27.89 121.92 28.61 122.18 29.37 122.36 30.23 122.46 31.11 122.5 32.1 122.44 33.13 122.28 34.28 122.07 35.48 121.77 36.83 121.39 38.25 120.68 39.99 119.8 41.67 118.81 43.31 117.63 44.93 116.36 46.44 114.97 47.94 113.51 49.37 111.94 50.77 110.35 52.05 108.66 53.33 106.97 54.49 105.24 55.64 103.51 56.72 101.83 57.7 100.14 58.64 98.51 59.54 98.41 59.94 98.39 60.38 98.41 60.77 98.49 61.15 98.61 61.53 98.77 61.85 98.95 62.17 99.17 62.49 99.39 62.73 99.66 62.99 99.96 63.19 100.24 63.41 100.56 63.55 100.85 63.69 101.17 63.81 101.53 63.91 102.68 64.03 103.83 64.09 105.03 64.07 106.22 63.93 107.4 63.75 108.6 63.49 109.81 63.19 111 62.77 112.2 62.33 113.39 61.83 114.6 61.29 115.79 60.69 116.96 60 118.15 59.34 119.3 58.64 120.5 57.92 120.81 57.88 121.09 57.92 121.33 58.02 121.53 58.14 121.64 58.34 121.74 58.58 121.81 58.84 121.85 59.12 121.81 59.44 121.77 59.76 121.71 60.1 121.64 60.47 121.55 60.8 121.47 61.13 121.33 61.47 121.25 61.79 120.5 63.43 119.74 65.07 118.97 66.73 118.11 68.34 117.23 69.96 116.31 71.55 115.29 73.11 114.26 74.65 113.13 76.13 111.94 77.59 110.68 79 109.36 80.36 107.91 81.66 106.39 82.89 104.81 84.07 103.11 85.21 101.29 86.09 99.42 86.87 97.52 87.55 95.53 88.09 93.55 88.47 91.54 88.75 89.53 88.92 87.55 88.97 85.58 88.88 83.67 88.72 81.87 88.43 80.08 88.05 78.41 87.55 76.84 86.97 75.37 86.27 74.1 85.51 72.93 84.57 71.9 83.63 71.02 82.56 70.25 81.52 69.55 80.42 69 79.28 68.52 78.1 68.12 76.89 67.77 75.67 67.53 74.39 67.33 73.11 67.17 71.77 67.05 70.4 66.99 69.04 66.93 67.64 66.93 66.25 66.46 66.25 65.92 67.52 65.42 68.78 64.93 70.06 64.43 71.36 63.95 72.65 63.48 73.95 63.04 75.25 62.58 76.57 62.13 77.88 61.69 79.22 61.29 80.54 60.85 81.84 60.44 83.17 60.04 84.51 59.62 85.83 59.25 87.17 57.54 88.05 55.81 88.86 54.02 89.48 52.22 89.98 50.39 90.4 48.58 90.66 46.73 90.84 44.91 90.88 43.14 90.84 41.37 90.68 39.66 90.46 38 90.14 36.41 89.74 34.9 89.26 33.47 88.72 32.12 88.11 32.62 85.83 33.11 83.59 33.61 81.36 34.12 79.16 34.64 76.95 35.18 74.81 35.75 72.65 36.35 70.5 36.92 68.34 37.6 66.19 38.31 64.03 39.03 61.85 39.84 59.66 40.7 57.48 41.59 55.23 42.56 53.01 42.03 52.91 41.47 52.89 40.88 52.89 40.28 52.91 39.66 52.97 39.03 53.07 38.41 53.11 37.82 53.17 37.22 53.17 36.69 53.11 36.15 52.97 35.71 52.81 35.32 52.53 35 52.15 34.74 51.65 34.58 51.05 35 49.27 35.4 47.5 35.81 45.66 36.21 43.81 36.63 41.95 37.08 40.09 37.6 38.21 38.12 36.34 38.71 34.48 39.37 32.6 40.1 30.79 40.91 29.03 41.81 27.29 42.82 25.6 43.91 23.96 45.17 22.4 48.3 21.58 51.46 20.85 54.66 20.17 57.84 19.61 61.03 19.11 64.23 18.69 67.45 18.35 70.69 18.05 73.9 17.81 77.1 17.65 80.32 17.55 83.56 17.49 86.73 17.49 89.97 17.53 93.17 17.61 96.34 17.75 97.86 17.91 99.36 18.09 100.85 18.31 102.33 18.57 103.77 18.85 105.22 19.17 106.61 19.51 108.01 19.89 109.37 20.31 110.68 20.75 112.02 21.23 113.29 21.77 114.54 22.33 115.73 22.93 116.92 23.6 118.07 24.34"/><path class="cls-3" d="M511.28.5h0l-.1,0H.5L.56,107.35H511.32V.5Zm-395,71-1,1.57-1,1.54-1.14,1.48-1.18,1.47L110.68,79l-1.32,1.36-1.45,1.3-1.52,1.22-1.58,1.19-1.69,1.14-1.83.88-1.87.78-1.9.68-2,.54-2,.38-2,.28-2,.17-2,.06-2-.1-1.91-.17-1.8-.28-1.79-.38-1.67-.5L76.84,87l-1.47-.7-1.27-.76-1.17-.94-1-.94L71,82.56l-.77-1-.7-1.1L69,79.28l-.48-1.18-.4-1.21-.35-1.22-.24-1.28-.2-1.28-.16-1.34-.12-1.37L67,69l-.06-1.4V66.26h-.47l-.54,1.26-.5,1.26-.49,1.28-.5,1.3L64,72.65,63.48,74,63,75.25l-.46,1.32-.45,1.31-.44,1.34-.4,1.32-.43,1.3-.42,1.33L60,84.51l-.42,1.32-.37,1.34-1.71.88-1.73.81L54,89.48l-1.8.5-1.83.42-1.81.26-1.84.18-1.83,0-1.77,0-1.77-.16-1.71-.22L38,90.14l-1.59-.4-1.51-.48-1.43-.55-1.35-.6.49-2.28.5-2.24.5-2.23.51-2.2L34.64,77l.54-2.14.57-2.16.6-2.15.57-2.16.68-2.14L38.31,64,39,61.85l.81-2.19.86-2.18.89-2.24,1-2.23-.53-.1-.56,0h-.59l-.6,0-.62.06-.63.1-.62,0-.59.06h-.6l-.53-.06L36.15,53l-.44-.16-.39-.28L35,52.15l-.26-.5-.16-.6L35,49.26l.39-1.76.42-1.84.4-1.84L36.63,42l.45-1.86.52-1.88.52-1.87.59-1.86.66-1.88.73-1.81L40.92,29l.89-1.74,1-1.69L43.91,24l1.26-1.56,3.13-.82,3.16-.73,3.2-.68,3.18-.56,3.19-.5,3.2-.42,3.22-.34,3.24-.3,3.21-.24,3.2-.16,3.22-.1,3.24-.06h3.17l3.24,0,3.2.08,3.17.14,1.52.16,1.5.18,1.49.22,1.48.26,1.44.28,1.45.32,1.39.34,1.4.38,1.36.42,1.31.45,1.34.47,1.27.55,1.25.55,1.19.6,1.19.67,1.15.74.76.5.69.55.62.6.58.56.45.68.42.66.33.72.26.76.18.86.1.88,0,1-.06,1-.16,1.15-.21,1.2-.3,1.34-.38,1.43L120.68,40l-.88,1.68-1,1.64-1.18,1.62-1.27,1.51L115,47.94l-1.46,1.42-1.57,1.41-1.59,1.28-1.69,1.28L107,54.49l-1.73,1.15-1.73,1.08-1.68,1-1.69.94-1.63.9-.1.4,0,.44,0,.38.08.39.12.38.16.32.18.32.22.32.22.24.27.26.3.2.28.22.32.14.29.14.32.12.36.1,1.15.12,1.15.06,1.2,0,1.19-.14,1.18-.18,1.2-.26,1.21-.3,1.19-.42,1.2-.44,1.19-.5,1.21-.54,1.19-.61L117,60l1.19-.66,1.15-.7,1.2-.72.32,0,.27,0,.24.1.2.12.12.2.09.24.07.26,0,.28,0,.32,0,.32-.06.34-.06.36-.1.35-.08.32-.14.34-.08.32-.75,1.64-.76,1.64L119,66.74l-.86,1.6L117.23,70Zm362,10.4-1.83.88-1.81.93-1.85.86-1.84.84-1.85.8-1.88.76-1.87.72-1.89.66-1.91.59-1.9.54-1.9.44-1.92.38-1.94.28-2,.2-1.9.08h-2.77l-1.54,0-1.51-.1-1.47-.16-1.41-.22L440,90.08l-1.31-.34-1.27-.42-1.26-.46L435,88.31l-1.18-.6-1.11-.64-1.12-.7-1-.72-1-.76-1-.82-.92-.86-1.59,1-1.67,1-1.69,1-1.75.88-1.78.82-1.79.73-1.81.66-1.79.54-1.82.46-1.79.3-1.75.2-1.73,0-1.64-.12-1.63-.32-1.53-.5-1.47-.66-.64-.43-.59-.4-.54-.42-.52-.48-.51-.46-.44-.54-.43-.52-.4-.56-.43-.58-.37-.56-.33-.6-.32-.65-.32-.62-.28-.64-.28-.66-.26-.64-.51.38-.54.42-.58.38-.51.38-.58.38-.51.38-.58.35-.55.34-.6.36-.57.34-.61.36-.57.34-.6.32-.63.34-.6.32-.62.36-1,.56-1,.56-1,.52-1,.5-1.07.44-1,.43-1.09.34-1.08.32-1.09.28L374,90.3l-1.09.16-1.13.1-1.09.06-1.14,0-1.09-.08-1.09-.14-.91-.22-.86-.18-.81-.2-.74-.22-.75-.22-.76-.24-.69-.3-.66-.29-.66-.28-.61-.36-.63-.36-.6-.38-.56-.46-.58-.46-.55-.52-.54-.54-.23-.28-.22-.32-.24-.3-.18-.36-.18-.34-.16-.36-.15-.35-.13-.34-.09-.32-.14-.28-.06-.3-.08-.24,0-.2-.06-.16V80.9l-.28.22-.25.22-.32.24-.29.22L353,82l-.28.24-.28.22-.27.22-.28.18-.26.17-.22.16-.2.12-.13.14-.1.06-.11.06v0l-1.15.78-1.15.86-1.23.86-1.21.88-1.27.84-1.26.84-1.25.77-1.24.68-1.28.6-1.25.52-1.23.38-1.21.24-1.19.06-1.19-.08-1.13-.32-1.06-.5-.68-.46-.51-.5-.44-.6-.37-.67-.31-.76-.21-.8-.14-.84-.14-.9-.06-.9,0-.92v-.93l0-.92.06-.88.06-.9.08-.82.08-.76L327.5,80l-1.61,1.52L324.15,83l-1.89,1.43-1.93,1.32-2,1.24-2.05,1.1-2.07,1-2.06.8-2,.6-2,.38-1.91.16-1.85-.1-1.69-.38-1.57-.66-1.4-1-.28-.27-.25-.28-.25-.26-.26-.28-.22-.28-.22-.26L298,87l-.18-.28-.21-.3-.16-.3-.2-.3-.13-.28-.17-.26-.14-.28-.12-.28-.1-.26-1.18.64-1.22.64-1.31.62-1.35.6-1.37.6-1.41.58-1.45.54-1.43.47-1.45.44L283,90l-1.36.32-1.36.28-1.29.22-1.21.12-1.15.08h-1.07l-.32,0L275,91l-.22,0-.22,0-.22,0-.18,0-.19,0-.16-.08-.16-.06-.18-.06-.2-.1-.18-.08-.2-.14-.23-.12-.26-.12-.24-.16-.64-.42L271,89l-.44-.57-.37-.6-.29-.66-.23-.7-.16-.76-.15-.76,0-.8,0-.82V82.5l0-.84,0-.84.07-.78.08-.8.07-.76L268.07,80l-1.62,1.52L264.68,83l-1.85,1.43-1.93,1.32-2,1.24-2.06,1.1-2.07,1-2,.8-2,.6-2,.38-1.9.16-1.83-.1-1.71-.38-1.57-.66-1.41-1-.48-.39-.43-.42-.34-.38-.33-.4-.3-.46-.28-.44-.22-.44-.22-.48-.18-.5-.15-.5-.17-.5-.12-.54-.14-.59-.11-.56-.12-.58-.1-.6-1.09.86-1.13.92-1.16,1-1.17.92-1.21.92-1.23.92-1.25.88-1.26.82-1.27.77-1.32.7-1.31.64-1.32.52-1.31.42-1.35.32-1.35.16-1.31.06-.7-.06-.61,0-.66-.1-.63-.08-.62-.1-.59-.16-.58-.16L211.6,91l-.5-.28-.5-.28-.48-.38-.43-.42-.42-.48-.34-.54-.31-.61-.25-.66-.29-.94-.22-.9-.12-.78-.12-.76-.06-.73V81.9l.06-.6.06-.6.1-.6.08-.6.1-.6.12-.64.1-.62.1-.69.09-.68-.81.66-.79.71-.72.72-.71.76-.69.76-.66.78-.64.8-.59.86-.56.83-.56.86-.53.84-.5.86-.51.88-.46.86-.44.88-.44.89-.32.36-.47.32-.62.24-.79.22-.89.2-1,.12-1.13.1-1.16.1-1.27,0-1.25,0H186l-1.2,0h-2.18l-.59,0-.51,0-.47,0-.4,0-.36-.06-.31-.06-.28-.08-.24-.06-.2-.12-.18-.12-.14-.14-.11-.18-.11-.2-.07-.24-.08-.3,0-.29.13-.56.22-.64.27-.7.36-.72.33-.76.39-.8.37-.82.38-.76.32-.77.24-.72.22-.66.09-.64,0-.5-.13-.42-.25-.3-.37-.2-.47,0-.44.06-.48.12-.5.16-.54.26-.49.24-.54.32-.55.34-.54.38-.55.38-.58.46-.56.4-.55.44-.6.42-.57.41-.52.44-1.41,1-1.33,1-1.27.9-1.26.86-1.23.76L165,89l-1.17.6-1.15.5-1.15.38-1.18.26-1.14.16-1.2,0-1.19-.16-1.19-.32-1.25-.46-1.25-.68-.62-.41-.58-.44-.43-.52-.38-.56-.3-.6-.26-.66-.18-.7-.13-.7-.08-.76-.05-.76V81.56l.05-.8.06-.76.06-.78.09-.74L148.86,80l-1.6,1.52L145.5,83l-1.87,1.43-1.94,1.32-2,1.24-2,1.1-2.06,1-2.06.8-2.05.6-2,.38L127.6,91l-1.84-.1-1.71-.38-1.55-.66-1.41-1-1-.91-.86-1-.69-1-.52-1.1-.37-1.18-.22-1.23-.14-1.28,0-1.32.11-1.36.26-1.41.32-1.38.44-1.42.46-1.44.59-1.43.64-1.42.7-1.38,1-2L123,64.77l1.33-1.88,1.41-1.8,1.48-1.71,1.62-1.68,1.65-1.56,1.72-1.45L134,53.33l1.81-1.24L137.72,51l1.84-.94,1.87-.83,1.89-.64,1.89-.48,1.84-.23,1.43,0,1.23.18,1,.3.84.39.69.43.56.51.43.54.32.56.26.54.18.54.12.5.14.46.08.38.14.28.11.18.22.1.22-.32.22-.32.26-.3.28-.32.28-.36.27-.28.32-.32.32-.28.31-.28.35-.26.33-.24.38-.24.35-.14.36-.16.38-.14.38-.06.91-.12,1-.15,1-.12,1.07-.1,1.07-.06,1.05,0h1.09l1,.06,1,.12,1,.21.9.24.81.38.76.44.63.54.5.68.4.78-.46,1.36-.41,1.33-.44,1.28-.44,1.2-.4,1.2-.41,1.14-.38,1.17-.38,1.12-.38,1.14-.33,1.16L169.73,66l-.3,1.21-.3,1.22-.23,1.3-.22,1.36-.2,1.43v.38l0,.16,0,.2.08.18.08.16.1.16.15.12.22.08.26,0,.3,0,.38-.1.44-.2.53-.28.6-.38L173,72l1.37-1,1.31-.94,1.33-1,1.27-1L179.6,67,180.85,66l1.21-1.14,1.19-1.24,1.2-1.32,1.13-1.46,1.13-1.57,1-1.66,1.07-1.88,1-2,1-2.18.95-.48,1-.42,1-.38,1-.28,1-.22,1-.21,1.08-.12,1-.1,1.05,0h1l1,.06,1,.06.93.12,1,.21.87.18.88.26.56.2.31.44.12.72-.06.92-.22,1.08-.33,1.16L206.67,56l-.46,1.28-.5,1.3-.51,1.26L204.76,61l-.37,1-.28.86-.16.66,0,.42.22.12.53-.06.54-.2.51-.32.52-.4.5-.48.5-.56.53-.64.5-.66.53-.71.54-.72.52-.74.58-.68.59-.68.61-.62.66-.58.69-.46.54-.55.6-.52.59-.44.6-.44.62-.4.63-.38.65-.32.66-.32.61-.28.7-.26.65-.22.66-.2.65-.14.68-.14.66-.1.65-.06H224l.82.06.78.1.79.14.74.18.69.22.69.26.62.32.59.34.58.38.5.48.45.5.42.54L232,55l.3.69.24.76.12,1,0,1.18-.2,1.3-.3,1.37-.38,1.42-.43,1.46-.48,1.44L230.44,67,230,68.4l-.33,1.28-.24,1.16-.08,1,.06.86.26.7.5.44.77.22h.58l.57,0,.6,0,.59-.06.6-.14.59-.12.6-.18.6-.26.57-.28.56-.38.55-.42.54-.51.5-.54.51-.66.46-.74.48-.78,1-2,1.25-2,1.39-1.92,1.53-1.9,1.63-1.87,1.72-1.78,1.79-1.68L252,54.27l1.89-1.46,1.86-1.28,1.85-1.12,1.85-.94,1.83-.77,1.71-.53,1.66-.28h1.57l1.41.07,1.21.16,1,.23.88.25.75.26.6.3.5.32.37.37.28.34.22.36.16.34.1.34.06.36.05.28,0,.28.07.28h0v.7l0,.14v.14l.06.14,0,.16.05.12.06.16.07.1.13.12.06,0,.08,0,.08,0,.08-.08.06-.08.08-.14.06-.12.06-.16.06-.12,0-.16,0-.16.06-.12V53l0-.1v-.06h0l4.13-16.16.34-.95.49-.86.69-.76.83-.68,1-.63,1.05-.52,1.18-.47,1.25-.45,1.31-.42,1.37-.38,1.39-.34,1.43-.36,1.41-.34,1.41-.35,1.41-.35,1.35-.39.46-.09.37,0,.36.06.29.1.21.12.16.2.08.24.07.26,0,.32V30l0,.34-.07.34-.06.38-.08.38-.1.39-.1.37-12.33,43-.11.42.05.32.12.3.19.24.29.18.33.12.38.1.44.06h.93l.54,0,.49-.06.54-.08.5-.08.51-.1.46-.06.35-.1.38-.1.38-.06.36-.06.37-.1.39-.1.37-.08.37-.1.35-.12.31-.16.32-.2.28-.18.26-.22.22-.3.18-.3.15-.32.1-.36.12-.34.12-.34.14-.32.12-.36.12-.35.15-.32.14-.34.15-.32.15-.34.17-.32.15-.36.16-.3.16-.36.16-.32.18-.3,1.06-2,1.22-1.93,1.35-1.9L304.54,61l1.61-1.81,1.69-1.72,1.71-1.6,1.82-1.53,1.81-1.4L315,51.67l1.89-1.1,1.85-.94,1.81-.75,1.76-.56L324,48l1.63-.07,1.45,0,1.21.18,1,.3.86.39.67.43.58.51.44.54.33.56.26.54.16.54.16.5.08.46.14.38.08.28.16.18.22.1.19-.32.25-.32.25-.3.26-.32.28-.36.27-.28.32-.32.3-.28.36-.28.32-.26.34-.24.37-.24.34-.14.38-.16.37-.14.39-.06.92-.1,1-.08,1-.1,1.05-.11,1.08-.06,1.09,0h1.07l1,.09,1,.07.94.21.91.24.82.36.71.4.66.54.49.68.42.78-.47,1.4-.48,1.33-.46,1.32L350.91,58l-.47,1.26L350,60.52l-.44,1.23L349.09,63l-.4,1.24-.41,1.22-.39,1.25L347.56,68l-.28,1.34L347,70.62,346.75,72l-.17,1.46v.82l.14.34.14.3.22.22.26.16.28.12.31.06.35,0,.37,0,.37-.06.43-.1.37-.12.4-.2.38-.18.39-.22,4-3.49,1-2.66,1-2.67,1-2.68,1.09-2.71,1.14-2.68L361.42,55l1.25-2.64L364,49.69l1.41-2.63,1.49-2.6,1.63-2.57,1.69-2.48L372.05,37,374,34.6l2.09-2.31,2.22-2.2,1.19-1,1.3-.92,1.27-.88,1.31-.8,1.35-.71,1.39-.6,1.33-.54,1.35-.4,1.35-.28,1.31-.16,1.29,0,1.25.1,1.21.26,1.13.4,1.1.6,1,.76.65.89.58,1,.38,1.08.27,1.18.13,1.21,0,1.21-.1,1.3-.21,1.35-.27,1.36-.38,1.32-.44,1.37-.49,1.36-.56,1.3-.6,1.3-.65,1.27-.69,1.2-1,1.46L394,48.49l-1.09,1.42-1.15,1.42-1.19,1.42-1.24,1.4-1.27,1.37-1.28,1.36-1.32,1.32-1.35,1.34-1.37,1.27-1.37,1.26L380,63.31l-1.41,1.24-1.39,1.16-1.41,1.19-.16.72-.08.76-.1.76,0,.78v.76l0,.8.1.73.12.74.12.68.2.64.24.56.26.52.32.44.33.34.41.26.44.18,1,.14h1l1.07-.14,1.09-.24,1.08-.38,1.09-.44,1.05-.54,1.09-.64,1.07-.66,1-.7,1-.76,1-.77.95-.76.95-.76.9-.72.88-.7.94-2.51,1-2.5,1-2.5,1-2.51L399.37,56l1.15-2.51L401.76,51,403,48.54l1.35-2.44,1.45-2.38,1.53-2.35,1.59-2.3,1.76-2.25,1.81-2.18,1.94-2.17,2.09-2,1.23-1,1.26-.94,1.28-.87,1.34-.78L423,26.1l1.35-.6,1.35-.54,1.37-.38,1.31-.32,1.31-.14,1.29,0,1.25.1,1.19.28,1.16.42,1.06.56,1,.8.7.89.51,1,.42,1.07.26,1.15.13,1.21V32.8l-.08,1.25-.15,1.35-.28,1.36-.38,1.32-.43,1.37-.52,1.36-.56,1.3-.61,1.3L435,44.68l-.68,1.2-1,1.46-1,1.47-1.09,1.42L430,51.65l-1.18,1.42-1.26,1.4-1.25,1.37-1.27,1.36-1.35,1.32-1.35,1.32L421,61.13l-1.41,1.26-1.37,1.24-1.41,1.22L415.4,66,414,67.2l-.16.74-.1.72-.08.72,0,.74v.72l.05.74.06.69.14.68.16.66.18.6.22.56.28.54.31.48.34.4.42.38.43.32.22.14.22.08.22.1.22.06.21,0,.21,0,.18,0,.19,0H418l.14,0h.22l.1,0h.12l2.93-1.14,2.89-1.38,2.75-1.62,2.69-1.83,2.64-2L435,67.14l2.48-2.31,2.41-2.44,2.36-2.57,2.29-2.6,2.22-2.63,2.2-2.66,2.15-2.67,2.13-2.58,2.06-2.59,2.06-2.46.18-.34.22-.32.22-.38.26-.39.28-.37.28-.38.31-.38.32-.39.28-.33L460,38l.28-.33.32-.26.28-.18.26-.2.24-.08.21,0,.92,0,.93-.06.95,0,1,0,1,0,1,0,1,0h1l.94,0,.95,0,.89.06.92.08.83.14.85.18.77.21.76.27-.18.7-.22.67-.32.6-.31.58-.38.52-.4.54-.44.54-.47.54L473,43l-.47.6-.44.68-.44.74-.4.82-.37.92-.32,1L470.31,49,470.19,50l0,1,.07,1.06.15,1,.22,1,.26,1,.24,1,.3,1,.24,1,.26.94.17,1,.16,1,0,1,0,1-.16,1.1-.24,1.18-.15.48-.21.51-.18.54-.21.54-.22.54-.22.56-.22.58-.22.56-.22.56-.21.58-.16.56-.16.55-.12.58-.1.54,0,.5,0,.5.88-.22.87-.34.92-.48.88-.56.92-.65.91-.7.92-.72.89-.76.91-.76.92-.8.89-.72.89-.7.88-.63.87-.58.83-.44.9-.34Z"/><polygon class="cls-1" points="90.58 50.29 90.21 49.47 89.71 48.77 89.09 48.17 88.4 47.68 87.59 47.28 86.68 46.96 85.74 46.7 84.71 46.52 83.63 46.36 82.54 46.26 81.41 46.2 80.25 46.14 79.13 46.1 78.02 46.08 76.9 46.04 75.85 45.99 74.98 46.1 74.22 46.2 73.57 46.36 72.99 46.54 72.53 46.74 72.16 46.98 71.82 47.24 71.56 47.56 71.34 47.9 71.14 48.26 70.97 48.67 70.84 49.14 70.69 49.63 70.55 50.13 70.41 50.69 70.25 51.33 70.03 51.93 69.83 52.47 69.67 52.97 69.51 53.45 69.4 53.89 69.3 54.27 69.24 54.63 69.28 54.94 69.34 55.23 69.5 55.48 69.75 55.74 70.09 55.92 70.49 56.08 71.06 56.24 71.72 56.36 72.53 56.5 73.63 56.44 74.76 56.36 75.95 56.34 77.14 56.28 78.31 56.22 79.5 56.08 80.69 55.96 81.89 55.76 83.08 55.54 84.21 55.26 85.34 54.91 86.4 54.47 87.42 53.95 88.44 53.35 89.34 52.63 90.21 51.83 90.29 51.71 90.37 51.59 90.43 51.45 90.51 51.33 90.53 51.21 90.57 51.07 90.57 50.95 90.58 50.83 90.58 50.69 90.58 50.61 90.58 50.51 90.58 50.41 90.58 50.35 90.58 50.31 90.58 50.29"/><polygon class="cls-1" points="137.65 75.25 137.89 75.45 138.25 75.59 138.59 75.73 138.99 75.79 139.4 75.79 139.84 75.75 140.31 75.67 140.81 75.53 141.31 75.35 141.8 75.13 142.34 74.83 142.84 74.53 143.37 74.17 143.91 73.77 144.41 73.33 144.94 72.87 145.42 72.37 145.86 71.86 146.25 71.36 146.63 70.84 146.95 70.34 147.22 69.84 147.48 69.32 147.66 68.86 147.83 68.38 147.92 67.9 147.94 67.5 147.94 67.08 147.88 66.7 147.78 66.36 147.61 66.05 147.4 65.81 147.13 65.59 146.81 65.43 146.45 65.29 146.08 65.23 145.66 65.23 145.22 65.27 144.74 65.37 144.25 65.49 143.75 65.67 143.25 65.92 142.72 66.19 142.19 66.52 141.65 66.86 141.13 67.24 140.62 67.68 140.12 68.16 139.62 68.64 139.18 69.14 138.77 69.64 138.39 70.14 138.09 70.66 137.79 71.16 137.56 71.67 137.36 72.19 137.22 72.63 137.12 73.11 137.07 73.51 137.07 73.93 137.14 74.31 137.24 74.65 137.43 74.97 137.65 75.25"/><polygon class="cls-1" points="316.32 75.25 316.55 75.45 316.87 75.59 317.25 75.73 317.63 75.79 318.04 75.79 318.48 75.75 318.94 75.67 319.42 75.53 319.91 75.35 320.45 75.13 320.95 74.83 321.49 74.53 322.01 74.17 322.55 73.77 323.05 73.33 323.58 72.87 324.04 72.37 324.48 71.86 324.89 71.36 325.28 70.84 325.57 70.34 325.87 69.84 326.11 69.32 326.31 68.86 326.43 68.38 326.52 67.9 326.59 67.5 326.59 67.08 326.52 66.7 326.38 66.36 326.25 66.05 326.03 65.81 325.73 65.59 325.43 65.43 325.07 65.29 324.7 65.23 324.26 65.23 323.82 65.27 323.37 65.37 322.89 65.49 322.4 65.67 321.88 65.92 321.36 66.19 320.83 66.52 320.29 66.86 319.75 67.24 319.25 67.68 318.76 68.16 318.26 68.64 317.82 69.14 317.41 69.64 317.03 70.14 316.72 70.66 316.44 71.16 316.19 71.67 316 72.19 315.88 72.63 315.78 73.11 315.72 73.51 315.72 73.93 315.78 74.31 315.9 74.65 316.06 74.97 316.32 75.25"/><polygon class="cls-1" points="256.85 75.25 257.11 75.45 257.43 75.59 257.81 75.73 258.19 75.79 258.59 75.79 259.02 75.75 259.5 75.67 259.99 75.53 260.49 75.35 260.99 75.13 261.52 74.83 262.02 74.53 262.56 74.17 263.09 73.77 263.59 73.33 264.13 72.87 264.6 72.37 265.06 71.86 265.48 71.36 265.85 70.84 266.17 70.34 266.45 69.84 266.68 69.32 266.89 68.86 267.01 68.38 267.11 67.9 267.16 67.5 267.16 67.08 267.11 66.7 266.98 66.36 266.83 66.05 266.61 65.81 266.31 65.59 266.01 65.43 265.63 65.29 265.26 65.23 264.84 65.23 264.4 65.27 263.95 65.37 263.43 65.49 262.93 65.67 262.44 65.92 261.9 66.19 261.36 66.52 260.85 66.86 260.31 67.24 259.81 67.68 259.3 68.16 258.81 68.64 258.37 69.14 257.97 69.64 257.61 70.14 257.27 70.66 257 71.16 256.78 71.67 256.57 72.19 256.42 72.63 256.34 73.11 256.3 73.51 256.3 73.93 256.36 74.31 256.46 74.65 256.64 74.97 256.85 75.25"/><polygon class="cls-1" points="390.24 42.29 389.6 43.27 388.95 44.26 388.25 45.21 387.57 46.14 386.84 47.02 386.11 47.89 385.31 48.73 384.54 49.55 383.73 50.39 382.87 51.21 382.03 51.99 381.14 52.75 380.27 53.55 379.4 54.33 378.5 55.09 377.59 55.9 375.32 57.7 375.74 56.52 376.2 55.32 376.74 54.05 377.3 52.79 377.91 51.45 378.56 50.13 379.23 48.77 379.96 47.44 380.75 46.08 381.56 44.78 382.43 43.48 383.3 42.23 384.26 41.07 385.21 39.92 386.18 38.89 387.26 37.93 387.81 37.44 388.35 37.16 388.84 36.98 389.28 36.94 389.7 37.04 390.04 37.22 390.36 37.48 390.58 37.86 390.76 38.26 390.89 38.78 390.95 39.28 390.95 39.88 390.85 40.47 390.73 41.07 390.51 41.69 390.24 42.29"/><polygon class="cls-1" points="450.61 68.02 450.6 68.48 450.56 68.88 450.53 69.32 450.47 69.74 450.39 70.14 450.31 70.56 450.21 70.94 450.1 71.36 449.94 71.75 449.77 72.11 449.58 72.49 449.36 72.87 449.14 73.25 448.9 73.63 448.63 74.01 448.31 74.43 447.87 74.81 447.45 75.15 447.06 75.51 446.62 75.83 446.2 76.07 445.77 76.33 445.37 76.55 444.93 76.73 444.48 76.89 444.04 77.05 443.61 77.15 443.17 77.25 442.71 77.31 442.27 77.33 441.79 77.33 441.36 77.33 441 77.25 440.7 77.15 440.44 77.05 440.16 76.93 439.94 76.81 439.73 76.65 439.51 76.51 439.31 76.33 439.13 76.17 438.93 75.97 438.8 75.83 438.6 75.63 438.44 75.45 438.27 75.25 438.1 75.07 437.94 74.87 438.63 74.23 439.31 73.61 439.97 72.97 440.64 72.37 441.26 71.75 441.9 71.12 442.51 70.5 443.11 69.9 443.7 69.24 444.3 68.6 444.89 67.96 445.44 67.28 446.02 66.6 446.58 65.92 447.14 65.17 447.71 64.45 448.03 64.45 448.31 64.55 448.63 64.67 448.86 64.83 449.12 65.01 449.36 65.23 449.58 65.45 449.77 65.75 449.95 65.99 450.12 66.31 450.25 66.6 450.38 66.9 450.47 67.2 450.53 67.5 450.6 67.74 450.61 68.02"/><polygon class="cls-1" points="428.49 42.62 427.85 43.59 427.2 44.58 426.52 45.53 425.82 46.44 425.12 47.34 424.36 48.22 423.56 49.08 422.79 49.91 421.97 50.73 421.12 51.53 420.28 52.31 419.41 53.11 418.54 53.89 417.62 54.65 416.71 55.46 415.81 56.24 413.55 58.02 413.97 56.84 414.43 55.64 414.96 54.39 415.52 53.11 416.12 51.77 416.77 50.45 417.47 49.08 418.22 47.74 419 46.42 419.81 45.07 420.66 43.81 421.58 42.59 422.51 41.37 423.45 40.25 424.46 39.19 425.51 38.25 426.08 37.76 426.61 37.48 427.12 37.33 427.56 37.29 427.95 37.36 428.29 37.54 428.61 37.82 428.83 38.18 429.02 38.63 429.14 39.1 429.2 39.63 429.2 40.2 429.1 40.77 428.98 41.37 428.77 42.01 428.49 42.62"/></g></g></svg>