<?xml version="1.0" encoding="utf-8"?>
<!-- Generator: Adobe Illustrator 22.1.0, SVG Export Plug-In . SVG Version: 6.00 Build 0)  -->
<svg version="1.1" id="Layer_1" xmlns="http://www.w3.org/2000/svg" xmlns:xlink="http://www.w3.org/1999/xlink" x="0px" y="0px"
	 viewBox="0 0 300 144" style="enable-background:new 0 0 300 144;" xml:space="preserve">
<style type="text/css">
	.st0{fill:#FFFFFF;}
</style>
<g>
	<polygon class="st0" points="25.7,61 23.8,63.7 81,103.4 82.9,100.7 	"/>
	<polygon class="st0" points="28,55.3 26.1,58.1 84.4,98.6 86.3,95.9 	"/>
	<polygon class="st0" points="30.4,49.4 28.5,52.2 87.9,93.5 89.9,90.8 	"/>
	<g>
		<g>
			<path class="st0" d="M72.4,26.3H23.3l-2.4,3.4h51.5c5.3,0,9.6,4.3,9.6,9.6s-4.3,9.6-9.6,9.6H30.6l-2.1,3.4h43.9
				c7.2,0,13-5.8,13-13S79.6,26.3,72.4,26.3z"/>
		</g>
	</g>
	<g>
		<path class="st0" d="M72.9,20.4H27.5l-2.4,3.4h47.8c8.5,0,15.5,6.9,15.5,15.5c0,8.5-6.9,15.5-15.5,15.5H28.2l-2.1,3.4h46.9
			c10.4,0,18.9-8.5,18.9-18.9C91.8,28.8,83.3,20.4,72.9,20.4z"/>
	</g>
	<g>
		<path class="st0" d="M73.7,14.8H31.5l-2.4,3.4h44.6c11.6,0,21.1,9.5,21.1,21.1s-9.5,21.1-21.1,21.1H25.9l-2.1,3.4h49.9
			c13.5,0,24.5-11,24.5-24.5S87.2,14.8,73.7,14.8z"/>
	</g>
</g>
<g>
	<path class="st0" d="M164.1,61.7h-24.6V65h24.6c5.3,0,9.6,4.3,9.6,9.6s-4.3,9.6-9.6,9.6H116l-1.6,2.3l-0.7,1.1h50.6
		c7.2,0,13-5.8,13-13S171.3,61.7,164.1,61.7z"/>
	<path class="st0" d="M164.7,55.8h-25.1v3.4h25.1c8.5,0,15.5,6.9,15.5,15.5c0,8.5-6.9,15.5-15.5,15.5h-52.9l-1.6,2.3l-0.8,1.1h55.3
		c10.4,0,18.9-8.5,18.9-18.9C183.5,64.3,175.1,55.8,164.7,55.8z"/>
	<path class="st0" d="M165.2,49.9h-25.7v3.4h25.7c11.8,0,21.3,9.6,21.3,21.3S177,96,165.2,96h-57.6l-1.6,2.3l-0.8,1.1v0h60
		c13.6,0,24.7-11.1,24.7-24.7S178.9,49.9,165.2,49.9z"/>
	<path class="st0" d="M181.5,27.3l-2.4,3.4h-47.7c-5.3,0-9.6,4.3-9.6,9.6s4.3,9.6,9.6,9.6H156v3.4h-24.6c-7.2,0-13-5.8-13-13
		s5.8-13,13-13H181.5z"/>
	<path class="st0" d="M185.7,21.5l-2.4,3.4h-52.4c-8.5,0-15.5,7-15.5,15.5s7,15.5,15.5,15.5H156v3.4h-25.1
		c-10.4,0-18.9-8.5-18.9-18.9s8.5-18.9,18.9-18.9H185.7z"/>
	<path class="st0" d="M189.9,15.6l-2.4,3.4h-57.2c-11.8,0-21.3,9.6-21.3,21.3c0,11.8,9.6,21.3,21.3,21.3H156v3.4h-25.7
		c-13.6,0-24.7-11.1-24.7-24.7s11.1-24.7,24.7-24.7H189.9z"/>
</g>
<g>
	<path class="st0" d="M253.2,61.7h-24.6V65h24.6c5.3,0,9.6,4.3,9.6,9.6c0,5.3-4.3,9.6-9.6,9.6h-48.2l-1.6,2.3l-0.7,1.1h50.6
		c7.2,0,13-5.8,13-13S260.4,61.7,253.2,61.7z"/>
	<path class="st0" d="M253.8,55.8h-25.1v3.4h25.1c8.5,0,15.5,6.9,15.5,15.5c0,8.5-6.9,15.5-15.5,15.5h-52.9l-1.6,2.3l-0.8,1.1h55.3
		c10.4,0,18.9-8.5,18.9-18.9C272.6,64.3,264.2,55.8,253.8,55.8z"/>
	<path class="st0" d="M254.3,49.9h-25.7v3.4h25.7c11.8,0,21.3,9.6,21.3,21.3S266.1,96,254.3,96h-57.6l-1.6,2.3l-0.8,1.1v0h60
		c13.6,0,24.7-11.1,24.7-24.7S268,49.9,254.3,49.9z"/>
	<path class="st0" d="M270.6,27.3l-2.4,3.4h-47.7c-5.3,0-9.6,4.3-9.6,9.6s4.3,9.6,9.6,9.6H245v3.4h-24.6c-7.2,0-13-5.8-13-13
		s5.8-13,13-13H270.6z"/>
	<path class="st0" d="M274.8,21.5l-2.4,3.4H220c-8.5,0-15.5,7-15.5,15.5s7,15.5,15.5,15.5H245v3.4H220c-10.4,0-18.9-8.5-18.9-18.9
		s8.5-18.9,18.9-18.9H274.8z"/>
	<path class="st0" d="M279,15.6l-2.4,3.4h-57.2c-11.8,0-21.3,9.6-21.3,21.3c0,11.8,9.6,21.3,21.3,21.3H245v3.4h-25.7
		c-13.6,0-24.7-11.1-24.7-24.7s11.1-24.7,24.7-24.7H279z"/>
</g>
<path class="st0" d="M75.2,124.2V113c0-0.3,0-0.5,0.1-0.9c0.1-1,0.4-1.7,0.9-2.2c0.5-0.5,1.2-0.8,2.2-0.9c0.3,0,0.5-0.1,0.7-0.1h1.4
	v2.5h-1.3c-0.9,0-1.4,0.5-1.4,1.5v11.2H75.2z"/>
<path class="st0" d="M82.6,120.2v-6.8c0-2.9,1.6-4.4,4.7-4.4h3.8c1.2,0,2.2,0.3,2.9,1c0.7,0.7,1.1,1.6,1.1,2.9v1.8l-10,4.7l0,0.7
	c0.1,0.7,0.3,1.1,0.5,1.3c0.2,0.3,0.7,0.4,1.3,0.4h8.4v2.5h-8.6c-1.2,0-2.2-0.4-3-1.1S82.6,121.4,82.6,120.2z M85.1,116.5l7.4-3.5
	v-0.2c0-0.9-0.5-1.3-1.5-1.3h-4.2c-1.1,0-1.7,0.6-1.7,1.9V116.5z"/>
<path class="st0" d="M98.3,120.3v-7.4c0-1.2,0.4-2.2,1.1-2.9c0.7-0.7,1.8-1,3-1h6v-5.1h2.5v16.1c0,1.1-0.4,2.1-1.1,3
	c-0.7,0.9-1.6,1.3-2.7,1.3h-5c-0.4,0-1-0.1-1.5-0.4C99.1,123.2,98.3,122,98.3,120.3z M100.9,120.3c0.2,1,0.6,1.5,1.3,1.5h4.5
	c0.4,0,0.7-0.1,1-0.4c0.4-0.3,0.7-0.8,0.7-1.5v-6.7c0-1.1-0.5-1.6-1.4-1.6h-4.5c-1.1,0-1.7,0.6-1.7,1.7v6.9
	C100.9,120.2,100.9,120.2,100.9,120.3z"/>
<path class="st0" d="M114.1,124.2v-2.5h7.8c0.2,0,0.4-0.1,0.6-0.3c0.3-0.2,0.4-0.6,0.4-1.3V119c0-1-0.5-1.4-1.5-1.4h-3.5
	c-1.7,0-2.8-0.6-3.4-1.7c-0.3-0.5-0.4-1-0.4-1.5v-2c0-1.1,0.3-1.9,0.9-2.6c0.6-0.6,1.4-0.9,2.5-0.9h8v2.5h-7.7
	c-0.7,0-1.1,0.4-1.1,1.1v1.1c0,0.4,0.1,0.7,0.4,0.9s0.6,0.4,1,0.4h3.8c0.3,0,0.5,0,0.7,0.1c0.9,0.2,1.6,0.6,2.1,1.2
	c0.5,0.6,0.8,1.4,0.8,2.2v2.4c0,1-0.4,1.9-1.3,2.7c-0.7,0.4-1.4,0.7-1.9,0.7H114.1z"/>
<path class="st0" d="M128.5,120.4v-7.6c0-1.3,0.4-2.2,1.2-2.9c0.7-0.6,1.7-0.9,3-0.9h5.8v2.5h-5.9c-1.1,0-1.7,0.5-1.7,1.6v6.7
	c0,0.5,0.2,1,0.5,1.4c0.3,0.4,0.7,0.6,1.3,0.6h5.8v2.5h-5.8c-0.9,0-1.6-0.2-2.2-0.5C129.2,122.9,128.5,121.8,128.5,120.4z"/>
<path class="st0" d="M141.4,120.5v-7.9c0-2.1,1.1-3.3,3.4-3.5c0.1,0,0.2,0,0.3,0h5c0.1,0,0.3,0,0.6,0.1c2.3,0.3,3.5,1.5,3.5,3.5v7.9
	c0,1.4-0.7,2.5-2.1,3.3c-0.5,0.3-1.2,0.5-2,0.5h-4.8c-1.9,0-3.2-0.9-3.8-2.8C141.4,120.9,141.3,120.5,141.4,120.5z M145.8,121.7h4.1
	c1.2,0,1.8-0.7,1.8-2v-6.4c0-1.2-0.6-1.8-1.8-1.8h-4.1c-1.2,0-1.8,0.6-1.8,1.8v6.3C143.9,121,144.6,121.7,145.8,121.7z"/>
<path class="st0" d="M157.8,129.2v-16.4c0-1.2,0.4-2.2,1.1-2.9s1.7-1,2.9-1h4.8c1.1,0,1.9,0.2,2.5,0.6c1,0.8,1.5,1.8,1.5,3.1v7.3
	c0,1.2-0.3,2.1-1,2.8c-0.8,1-1.8,1.4-2.9,1.4h-6.4v5H157.8z M160.4,120.2c0.1,0.5,0.2,0.9,0.4,1.1c0.4,0.3,0.7,0.4,0.9,0.4h4.9
	c0.1,0,0.1,0,0.2,0c0.7-0.1,1.1-0.5,1.2-1.2c0-0.1,0-0.2,0-0.3v-7.5c0-0.4-0.1-0.7-0.3-0.8s-0.4-0.3-0.8-0.4h-4.8
	c-1.2,0-1.8,0.5-1.8,1.5v6.9C160.3,120.1,160.3,120.2,160.4,120.2z"/>
<path class="st0" d="M174.1,120.2v-6.8c0-2.9,1.6-4.4,4.7-4.4h3.8c1.2,0,2.2,0.3,2.9,1c0.7,0.7,1.1,1.6,1.1,2.9v1.8l-10,4.7l0,0.7
	c0.1,0.7,0.3,1.1,0.5,1.3c0.2,0.3,0.7,0.4,1.3,0.4h8.4v2.5h-8.6c-1.2,0-2.2-0.4-3-1.1C174.5,122.4,174.1,121.4,174.1,120.2z
	 M176.7,116.5l7.4-3.5v-0.2c0-0.9-0.5-1.3-1.5-1.3h-4.2c-1.1,0-1.7,0.6-1.7,1.9V116.5z"/>
<path class="st0" d="M189.5,124.2v-2.5h7.8c0.2,0,0.4-0.1,0.6-0.3c0.3-0.2,0.4-0.6,0.4-1.3V119c0-1-0.5-1.4-1.5-1.4h-3.5
	c-1.7,0-2.8-0.6-3.4-1.7c-0.3-0.5-0.4-1-0.4-1.5v-2c0-1.1,0.3-1.9,0.9-2.6c0.6-0.6,1.4-0.9,2.5-0.9h8v2.5h-7.7
	c-0.7,0-1.1,0.4-1.1,1.1v1.1c0,0.4,0.1,0.7,0.4,0.9c0.3,0.2,0.6,0.4,1,0.4h3.8c0.3,0,0.5,0,0.7,0.1c0.9,0.2,1.6,0.6,2.1,1.2
	c0.5,0.6,0.8,1.4,0.8,2.2v2.4c0,1-0.4,1.9-1.3,2.7c-0.7,0.4-1.4,0.7-1.9,0.7H189.5z"/>
<path class="st0" d="M203.9,124.2v-20.4h2.5v5.1h2.6v2.5h-2.6v12.7H203.9z"/>
<path class="st0" d="M210.6,120.3V109h2.6v11.7c0.1,0.6,0.7,1,1.7,1h4.1c0.6,0,1.1-0.1,1.3-0.4c0.3-0.2,0.4-0.7,0.4-1.3v-11h2.5
	v11.3c0,2.6-1.4,3.9-4.3,3.9h-4C212,124.2,210.6,122.9,210.6,120.3z"/>
<path class="st0" d="M226.8,120.3v-7.4c0-1.2,0.4-2.2,1.1-2.9c0.7-0.7,1.8-1,3-1h6v-5.1h2.5v16.1c0,1.1-0.4,2.1-1.1,3
	c-0.7,0.9-1.6,1.3-2.7,1.3h-5c-0.4,0-1-0.1-1.5-0.4C227.5,123.2,226.8,122,226.8,120.3z M229.3,120.3c0.2,1,0.6,1.5,1.3,1.5h4.5
	c0.4,0,0.7-0.1,1-0.4c0.4-0.3,0.7-0.8,0.7-1.5v-6.7c0-1.1-0.5-1.6-1.4-1.6H231c-1.1,0-1.7,0.6-1.7,1.7v6.9
	C229.3,120.2,229.3,120.2,229.3,120.3z"/>
<path class="st0" d="M242.5,105.6c0-0.5,0.2-0.9,0.5-1.2c0.3-0.3,0.7-0.5,1.2-0.5c0.5,0,0.9,0.2,1.2,0.5c0.3,0.4,0.5,0.8,0.5,1.3
	c0,0.5-0.2,0.9-0.5,1.2c-0.3,0.3-0.7,0.5-1.2,0.5c-0.5,0-0.9-0.2-1.3-0.5C242.6,106.5,242.5,106.1,242.5,105.6z M242.9,124.2h2.6
	V109h-2.6V124.2z"/>
<path class="st0" d="M249,120.5v-7.9c0-2.1,1.1-3.3,3.4-3.5c0.1,0,0.2,0,0.3,0h5c0.1,0,0.3,0,0.6,0.1c2.3,0.3,3.5,1.5,3.5,3.5v7.9
	c0,1.4-0.7,2.5-2.1,3.3c-0.5,0.3-1.2,0.5-2,0.5H253c-1.9,0-3.2-0.9-3.8-2.8C249,120.9,248.9,120.5,249,120.5z M253.4,121.7h4.1
	c1.2,0,1.8-0.7,1.8-2v-6.4c0-1.2-0.6-1.8-1.8-1.8h-4.1c-1.2,0-1.8,0.6-1.8,1.8v6.3C251.6,121,252.2,121.7,253.4,121.7z"/>
<path class="st0" d="M265,124.2v-2.5h7.8c0.2,0,0.4-0.1,0.6-0.3c0.3-0.2,0.4-0.6,0.4-1.3V119c0-1-0.5-1.4-1.5-1.4h-3.5
	c-1.7,0-2.8-0.6-3.4-1.7c-0.3-0.5-0.4-1-0.4-1.5v-2c0-1.1,0.3-1.9,0.9-2.6c0.6-0.6,1.4-0.9,2.5-0.9h8v2.5h-7.7
	c-0.7,0-1.1,0.4-1.1,1.1v1.1c0,0.4,0.1,0.7,0.4,0.9c0.3,0.2,0.6,0.4,1,0.4h3.8c0.3,0,0.5,0,0.7,0.1c0.9,0.2,1.6,0.6,2.1,1.2
	c0.5,0.6,0.8,1.4,0.8,2.2v2.4c0,1-0.4,1.9-1.3,2.7c-0.7,0.4-1.4,0.7-1.9,0.7H265z"/>
<g>
</g>
<g>
</g>
<g>
</g>
<g>
</g>
<g>
</g>
<g>
</g>
</svg>
